<?xml version="1.0" encoding="UTF-8"?>
<svg id="Layer_2" data-name="Layer 2" xmlns="http://www.w3.org/2000/svg" xmlns:xlink="http://www.w3.org/1999/xlink" viewBox="0 0 1500 1500">
  <defs>
    <style>
      .cls-1 {
        fill: #fffcfb;
        stroke-width: 26.46px;
      }

      .cls-1, .cls-2 {
        stroke: #000;
        stroke-linecap: round;
        stroke-linejoin: round;
      }

      .cls-3 {
        clip-path: url(#clippath);
      }

      .cls-4 {
        fill: none;
      }

      .cls-2 {
        fill: #28468b;
        stroke-width: 26.92px;
      }

      .cls-5 {
        fill: #ff2645;
      }
    </style>
    <clipPath id="clippath">
      <rect class="cls-4" width="1500" height="1500" rx="85.22" ry="85.22"/>
    </clipPath>
  </defs>
  <g class="cls-3">
    <rect class="cls-5" x="0" y="0" width="1500" height="1500" rx="84.67" ry="84.67"/>
    <rect class="cls-4" width="1500" height="1500"/>
    <polygon class="cls-4" points="1500 609 1500 1500 0 1500 0 609 -206.82 609 -206.82 1845 1718.82 1845 1718.82 609 1500 609"/>
    <rect class="cls-4" y="609" width="1500" height="891"/>
    <path class="cls-2" d="m1546,1515v-342.68c-26.18-22.84-573.52-503.49-614.52-539.38-12.79-11.23-29.41-17.44-46.65-17.44h-273.25c-17.26,0-33.9,6.23-46.7,17.49l-402.26,353.83v.02l-197.62,173.83v354.33h1581Z"/>
    <path class="cls-1" d="m736.93,665.96c-73.63-.77-133.62-15.56-174.24-28.96l-480.7,432.91c68.11-45.48,160.64-91.21,236.82-59.33,66.89,27.99,63.16,91.55,132.4,117.96,82.84,31.59,121.32-46.75,269.45-55.51,123.73-7.31,173.88,42.8,229.96,2.31,52.57-37.95,208.37-163.93,454.36-5.43l-481.75-432.91c-42.2,13.92-106.7,29.79-186.32,28.96Z"/>
    <ellipse cx="743.5" cy="636.5" rx="172.5" ry="20.5"/>
  </g>
</svg>